PathFileType	4	(X/Y/Z)	E:\Qualisys_Data\Carbon_Farble_Plate\Data\Amateur_Runner\S1\T1\S1T1V23_c3d.trc
DataRate	CameraRate	NumFrames	NumMarkers	Units	OrigDataRate	OrigDataStartFrame	OrigNumFrames
200.000000	200.000000	4	39	mm	200.000000	68	273
Frame#	Time	LSHO			RSHO			LICST			RICST			LASIS			LHEEL			RASIS			LTROC			RTROC			SACR			LTH1			LSK4			LTH2			LTH3			RHM5			LSK2			LTH4			RTH1			LTOE			RTH2			RTH3			RTH4			LLEP			RLEP			LSK1			LSK3			RSK1			LHM5			RSK2			LFT1			RSK3			RSK4			LLME			RLME			RTOE			RHEEL			RFT1			RFT2			LFT2			
		X1	Y1	Z1	X2	Y2	Z2	X3	Y3	Z3	X4	Y4	Z4	X5	Y5	Z5	X6	Y6	Z6	X7	Y7	Z7	X8	Y8	Z8	X9	Y9	Z9	X10	Y10	Z10	X11	Y11	Z11	X12	Y12	Z12	X13	Y13	Z13	X14	Y14	Z14	X15	Y15	Z15	X16	Y16	Z16	X17	Y17	Z17	X18	Y18	Z18	X19	Y19	Z19	X20	Y20	Z20	X21	Y21	Z21	X22	Y22	Z22	X23	Y23	Z23	X24	Y24	Z24	X25	Y25	Z25	X26	Y26	Z26	X27	Y27	Z27	X28	Y28	Z28	X29	Y29	Z29	X30	Y30	Z30	X31	Y31	Z31	X32	Y32	Z32	X33	Y33	Z33	X34	Y34	Z34	X35	Y35	Z35	X36	Y36	Z36	X37	Y37	Z37	X38	Y38	Z38	X39	Y39	Z39	

69	0.34	-1391.925903320312	1532.90283203125	-527.7789916992188	-1314.961303710938	1538.164672851562	-213.7371063232422	-1342.264282226562	1067.669311523438	-482.403564453125	-1327.289916992188	1086.36181640625	-188.1316680908203	-1297.143188476562	1032.330078125	-455.79833984375	-1130.154296875	105.7707061767578	-381.2653198242188	-1291.206298828125	1036.691162109375	-195.9819488525391	-1390.092895507812	940.0003662109376	-499.3714599609375	-1412.132568359375	960.2576904296876	-156.8388824462891	-1453.990966796875	1090.61865234375	-325.5702209472656	-1224.34228515625	821.3067016601562	-472.7247924804688	-1179.249877929688	272.5580749511719	-416.3705139160156	-1298.12890625	791.0357666015625	-507.3186340332031	-1191.014526367188	722.9274291992188	-460.4357299804688	-1877.192993164062	235.6822357177734	-213.4908447265625	-1199.72265625	366.5799865722656	-455.0639343261719	-1270.505493164062	695.7178955078125	-487.2341918945312	-1320.429931640625	802.78173828125	-194.3350982666016	-897.8076171875	216.2916870117188	-400.2098999023438	-1389.773315429688	818.0252075195312	-161.8261413574219	-1345.967895507812	706.0035400390625	-206.2852630615234	-1419.349243164062	723.5078125	-178.6985168457031	-1175.795288085938	579.2801513671875	-440.9360656738281	-1457.465576171875	555.4336547851562	-219.7168579101562	-1117.220458984375	380.5909423828125	-450.970947265625	-1103.498901367188	280.8528747558594	-445.3904113769531	-1625.972412109375	464.4613037109375	-205.4514465332031	-948.9678955078124	167.2904052734375	-454.8969116210938	-1663.163818359375	535.9122314453125	-220.3897247314453	-1106.724975585938	89.91229248046875	-353.7713623046875	-1714.539794921875	415.7749633789062	-218.1486358642578	-1748.726196289062	485.6864318847656	-243.2820281982422	-1096.979125976562	149.0010223388672	-434.7819213867188	-1844.699340820312	381.2086791992188	-222.2090148925781	-1826.019775390625	184.2831726074219	-288.6377868652344	-1896.556030273438	426.9804077148438	-263.9668273925781	-1919.234985351562	412.2474365234375	-301.2067260742188	-1922.723754882812	414.071044921875	-241.6298522949219	-1111.834716796875	79.36186218261719	-406.4231262207031
70	0.345	-1369.039916992188	1530.287963867188	-528.7396850585938	-1292.981323242188	1536.560791015625	-214.3318328857422	-1321.931762695312	1065.880981445312	-482.1070861816406	-1306.58056640625	1084.034790039062	-187.9088134765625	-1276.641845703125	1030.739624023438	-456.1553955078125	-1114.934814453125	102.7209167480469	-379.4292602539062	-1270.267333984375	1034.708374023438	-195.9101104736328	-1369.6943359375	938.3497924804688	-499.4685974121094	-1390.229370117188	956.6260986328124	-156.377685546875	-1433.894165039062	1088.469116210938	-325.5784606933594	-1205.820190429688	817.3656616210938	-473.5159912109375	-1162.48681640625	268.0934143066406	-414.6642761230469	-1279.193969726562	788.2162475585938	-509.7677307128906	-1175.867065429688	718.1546630859375	-460.9574279785156	-1856.45263671875	245.1074371337891	-212.0578002929688	-1183.123413085938	363.5140075683594	-454.1342163085938	-1252.832763671875	692.2776489257812	-487.2124328613281	-1296.017944335938	800.6996459960938	-194.2193145751953	-881.6065063476562	210.7089385986328	-400.7536315917969	-1366.297973632812	814.7254028320312	-161.9674072265625	-1320.070068359375	703.6791381835938	-205.1315307617188	-1394.041259765625	719.7220458984375	-178.5201873779297	-1158.462280273438	576.5607299804688	-441.0821838378906	-1429.201293945312	551.1915893554688	-219.4814910888672	-1100.359130859375	376.947265625	-450.1404113769531	-1087.114868164062	276.6342163085938	-443.6084289550781	-1599.789306640625	464.8746337890625	-205.9590301513672	-934.2857055664062	162.8945922851562	-455.0336608886719	-1634.0458984375	537.3094482421875	-220.4674377441406	-1091.597534179688	86.42095184326172	-352.1036682128906	-1687.872436523438	419.1800231933594	-217.8352508544922	-1721.108032226562	490.0846557617188	-242.2097015380859	-1081.976196289062	145.4635314941406	-433.5741882324219	-1819.615234375	389.5202331542969	-221.6100616455078	-1806.439208984375	191.6388397216797	-287.5928955078125	-1870.123779296875	436.1814270019531	-263.8605651855469	-1893.118530273438	420.9590148925781	-300.150390625	-1897.144775390625	424.0482788085938	-241.6685333251953	-1097.136108398438	76.17655181884766	-405.17333984375
71	0.35	-1346.356689453125	1527.971923828125	-529.8326416015625	-1271.753540039062	1535.052734375	-215.4062652587891	-1298.755859375	1063.955322265625	-482.4106140136719	-1286.20751953125	1081.832641601562	-187.1082153320312	-1255.7275390625	1029.373657226562	-455.7191467285156	-1100.759765625	98.68154144287108	-377.5216369628906	-1248.603759765625	1032.561767578125	-195.8312530517578	-1349.006713867188	936.2933349609376	-499.4651794433594	-1368.055786132812	953.3311157226562	-155.6183776855469	-1412.970703125	1085.968017578125	-325.3062438964844	-1186.699584960938	814.6632690429688	-474.4383850097656	-1147.83837890625	264.6371154785156	-414.7229309082031	-1261.016967773438	785.7501831054688	-509.7323913574219	-1156.77197265625	716.2039184570312	-462.6468811035156	-1832.763793945312	253.9945526123047	-210.7951965332031	-1167.195556640625	359.8600158691406	-453.8876037597656	-1234.902954101562	690.013427734375	-486.8619689941406	-1272.150024414062	798.722412109375	-194.0748901367188	-866.7843017578125	204.8441314697266	-401.2118530273438	-1342.7265625	811.0130004882812	-161.8502960205078	-1294.243286132812	701.2440185546875	-204.6119842529297	-1368.412963867188	715.572021484375	-178.7973480224609	-1141.021362304688	573.6743774414062	-441.071044921875	-1400.501831054688	546.4715576171875	-219.3590087890625	-1084.140502929688	373.0050964355469	-449.1782836914062	-1071.67431640625	272.4678039550781	-442.3282470703125	-1571.898681640625	464.8753356933594	-205.7487640380859	-920.830078125	157.3077239990234	-454.2184448242188	-1604.264404296875	538.4574584960938	-219.6856384277344	-1077.470336914062	82.82686614990234	-350.185302734375	-1662.072143554688	421.967041015625	-218.5563812255859	-1692.906127929688	493.5405883789062	-242.1361083984375	-1068.082885742188	141.700927734375	-432.43310546875	-1794.16064453125	397.0277099609375	-221.7525634765625	-1784.912963867188	198.6078033447266	-285.9436645507812	-1843.187377929688	445.1473083496094	-263.9969787597656	-1867.712036132812	430.5869750976562	-301.1506652832031	-1870.179321289062	433.6568603515625	-241.654541015625	-1083.741577148438	72.74982452392578	-403.4144287109375
72	0.355	-1323.286010742188	1524.811767578125	-530.8544311523438	-1250.181274414062	1533.159790039062	-216.3887481689453	-1278.877685546875	1061.511840820312	-482.1044921875	-1266.514282226562	1078.757446289062	-186.7776641845703	-1235.392456054688	1027.583862304688	-456.8749389648438	-1088.501708984375	94.67024230957033	-375.6437377929688	-1228.8544921875	1029.8251953125	-195.4217071533203	-1328.848266601562	934.3402709960938	-499.3272705078125	-1346.4443359375	948.8981323242188	-154.9223022460938	-1392.43017578125	1082.932006835938	-324.765625	-1167.08984375	813.4306030273438	-475.6714172363281	-1134.008666992188	260.6655883789062	-414.1922912597656	-1242.444702148438	784.1625366210938	-510.3084106445312	-1137.263793945312	714.8059692382812	-463.8700561523438	-1808.54638671875	262.8704833984375	-208.7729339599609	-1151.740844726562	356.0234985351562	-454.071044921875	-1215.784545898438	688.8236694335938	-486.4424438476562	-1248.429931640625	796.6209106445312	-193.5118865966797	-853.7504272460938	198.7058410644531	-401.6073608398438	-1318.584106445312	807.7218017578125	-161.0087127685547	-1268.361694335938	698.6582641601562	-203.7226257324219	-1342.896118164062	711.5088500976562	-178.073974609375	-1123.45849609375	570.4791870117188	-441.3335876464844	-1371.06201171875	542.6102905273438	-218.4750823974609	-1068.65673828125	368.6500854492188	-448.3323364257812	-1057.257080078125	267.7803955078125	-441.3085632324219	-1543.797119140625	465.1412048339844	-205.5201568603516	-908.2720336914062	151.3175201416016	-454.1202392578125	-1574.624877929688	539.2044677734375	-219.7062377929688	-1064.940063476562	78.29058074951172	-348.6693115234375	-1636.05712890625	424.255859375	-218.7215270996094	-1663.842529296875	496.7730102539062	-241.9237976074219	-1055.377319335938	137.2055206298828	-430.5572509765625	-1768.587524414062	404.1533813476562	-222.5146789550781	-1762.775634765625	205.4777374267578	-284.5096435546875	-1815.358764648438	453.1968994140625	-264.3768310546875	-1843.393188476562	438.8608703613281	-298.9770202636719	-1842.067993164062	442.4074401855469	-241.4330596923828	-1071.737915039062	67.95276641845703	-401.3284301757812
